<?xml version="1.0" encoding="utf-8"?>
<!-- Generator: Adobe Illustrator 16.0.0, SVG Export Plug-In . SVG Version: 6.00 Build 0)  -->
<!DOCTYPE svg PUBLIC "-//W3C//DTD SVG 1.1//EN" "http://www.w3.org/Graphics/SVG/1.1/DTD/svg11.dtd">
<svg version="1.1" id="Layer_1" xmlns="http://www.w3.org/2000/svg" xmlns:xlink="http://www.w3.org/1999/xlink" x="0px" y="0px"
	 width="3872px" height="1068px" viewBox="0 0 3872 1068" enable-background="new 0 0 3872 1068" xml:space="preserve">
<g>
	<path d="M1755.059,370.612c-3.105,4.998-5.646,13.879-5.646,19.732v342.248c0,5.854-3.83,13.614-8.511,17.242l-148.524,115.131
		c-4.681,3.63-3.631,6.598,2.334,6.598h261.418c5.965,0,7.594,3.573,3.619,7.938l-76.016,83.511
		c-3.974,4.365-12.105,7.938-18.071,7.938l-275.239-0.001c-5.965,0-7.611-3.586-3.655-7.97l160.321-177.706
		c3.951-4.384,7.188-12.759,7.188-18.616v-357.19c0-5.854,3.252-14.217,7.227-18.584l266.49-292.731
		c7.064-7.605,14.03-3.411,7.861,5.605C1915.062,134.143,1755.059,370.612,1755.059,370.612"/>
	<path d="M1428.883,370.612c-3.105,4.998-5.645,13.88-5.645,19.733v342.247c0,5.854-3.832,13.614-8.513,17.243l-148.522,115.13
		c-4.683,3.63-3.631,6.599,2.334,6.599h261.416c5.966,0,7.594,3.572,3.619,7.937l-76.015,83.511
		c-3.974,4.366-12.106,7.939-18.071,7.939l-275.24-0.002c-5.965,0-7.61-3.586-3.655-7.97l160.321-177.706
		c3.953-4.384,7.188-12.759,7.188-18.616v-357.19c0-5.854,3.252-14.217,7.226-18.583l266.49-292.732
		c7.065-7.605,14.03-3.411,7.861,5.606C1588.887,134.143,1428.883,370.612,1428.883,370.612"/>
	<path d="M896.763,787.264c3.952-4.383,7.183-12.759,7.178-18.613l-0.377-357.189c-0.006-5.856,3.241-14.216,7.216-18.583
		l266.568-292.734c3.974-4.366,12.426-7.938,18.392-7.938h274.921c5.965,0,7.609,3.586,3.655,7.971l-160.321,177.706
		c-3.953,4.384-7.184,12.759-7.178,18.614v357.19c0.006,5.854-2.863,14.216-6.839,18.58l-266.569,292.739
		c-3.975,4.364-12.106,7.934-18.072,7.934H740.097c-5.965,0-7.611-3.585-3.655-7.967L896.763,787.264z M1368.703,198.189
		c4.681-3.63,3.631-6.597-2.334-6.597h-190.557c-5.966,0-14.805,2.801-19.645,6.223L1007.887,302.71
		c-4.839,3.425-8.799,11.015-8.799,16.869v415.006c0,5.855-3.83,13.613-8.512,17.242L842.054,866.959
		c-4.683,3.628-3.632,6.598,2.334,6.598h190.556c5.967,0,14.805-2.8,19.646-6.225l148.279-104.896
		c4.84-3.421,8.799-11.013,8.799-16.868V330.563c0-5.854,3.83-13.615,8.512-17.242L1368.703,198.189z"/>
	<path d="M180.304,964.348c0-2.918,2.662-9.3,5.914-14.182l173.283-260.042c3.252-4.881,5.915-13.649,5.915-19.481V329.674
		c0-5.832,3.816-13.564,8.48-17.179l147.969-114.701c4.664-3.616,3.616-6.573-2.327-6.573H329.693c-5.944,0-14.75,2.792-19.571,6.2
		L161.741,302.386c-4.822,3.411-8.766,10.975-8.766,16.807v50.818c0,5.832-3.307,14.106-7.346,18.384l-79.838,84.551
		c-4.039,4.277-7.344,3.006-7.344-2.828v-59.849c0-5.833,3.241-14.163,7.2-18.513l265.574-291.643
		c3.96-4.349,12.062-7.907,18.006-7.907H623.44c5.942,0,7.582,3.574,3.644,7.939L467.36,277.19
		c-3.941,4.367-7.162,12.711-7.161,18.545l0.076,355.858c0.002,5.832-3.238,14.163-7.199,18.512L187.503,961.75
		C183.543,966.098,180.304,967.268,180.304,964.348"/>
	<path d="M3364.627,964.348c0-2.918,2.661-9.3,5.913-14.182l173.283-260.042c3.253-4.881,5.915-13.649,5.915-19.481V329.674
		c0-5.832,3.817-13.564,8.48-17.179l147.97-114.701c4.663-3.616,3.616-6.573-2.327-6.573h-189.846c-5.943,0-14.749,2.792-19.571,6.2
		l-148.381,104.965c-4.821,3.411-8.765,10.975-8.765,16.807v546.655c0,5.833-3.307,14.106-7.347,18.385l-79.837,84.55
		c-4.039,4.279-7.345,3.008-7.345-2.825V410.269c0-5.833,3.242-14.163,7.201-18.513l265.573-291.643
		c3.959-4.349,12.063-7.907,18.006-7.907h274.211c5.944,0,7.582,3.574,3.645,7.939L3651.684,277.19
		c-3.941,4.367-7.162,12.711-7.161,18.545l0.075,355.858c0.002,5.832-3.237,14.163-7.198,18.512L3371.826,961.75
		C3367.866,966.098,3364.627,967.268,3364.627,964.348"/>
	<path d="M2963.502,94.199h-274.921c-5.965,0-14.416,3.572-18.391,7.937l-266.568,292.735c-3.975,4.367-6.846,12.728-6.84,18.583
		v357.19c0.007,5.853-3.223,14.23-7.177,18.613l-160.321,177.709c-3.955,4.383-2.311,7.969,3.655,7.969l250.48-221.113
		c4.681-3.631,8.511-11.389,8.511-17.243V321.573c0-5.854,3.96-13.446,8.8-16.871l148.279-104.894
		c4.841-3.421,13.681-6.224,19.646-6.224l190.556,0.859c3.146,0,4.909,0.829,5.202,2.141c-0.221,1.038-1.157,2.273-2.866,3.598
		l-148.524,115.131c-4.681,3.628-8.511,11.389-8.511,17.242l-0.15,179.244c0,5.894,3.34,7.178,7.421,2.856l80.659-85.42
		c4.082-4.324,7.421-12.682,7.421-18.574l-0.202-110.836l-0.001-0.49c-0.001-5.856,3.228-14.222,7.179-18.602l160.32-177.706
		c1.616-1.791,2.282-3.443,2.115-4.777C2969.58,95.837,2967.53,94.199,2963.502,94.199"/>
	<path d="M3446.301,95.058h-334.533c-5.966,0-14.416,3.572-18.391,7.937l-266.568,292.734c-3.975,4.367-7.223,12.727-7.216,18.584
		v358.344c0.006,5.854-3.269,14.231-7.222,18.613L2652.05,968.98c-3.955,4.382-1.179,10.925,8.649,3.252l245.486-216.396
		c4.68-3.631,8.932-11.389,8.932-17.244V322.432c0-5.855,3.959-13.447,8.799-16.871l148.281-104.894
		c4.838-3.422,13.679-6.226,19.645-6.226h153.302c5.967,0,11.685,4.976,3.101,14.99c0,0-304.322,345.733-310.643,352.946
		c-6.318,7.214,0.338,11.464,3.956,8.146c1.396-1.281,75.401-69.511,168.319-154.953c12.518-12.518,16.961-3.577,16.961,7.154
		l-0.043,543.192c0,5.876,3.329,7.155,7.396,2.848l80.409-85.158c4.071-4.31,7.399-12.643,7.399-18.517l-0.023-532.976
		c0-11.327,2.951-21.461,10.106-28.615c115.764-106.453,217.874-200.473,217.874-200.473
		C3453.912,98.643,3452.266,95.058,3446.301,95.058"/>
	<path d="M1048.176,95.057H773.255c-5.965,0-14.416,3.572-18.392,7.937L488.296,395.729c-3.976,4.367-7.222,12.727-7.216,18.583
		v357.189c0.005,5.854-2.848,14.23-6.803,18.613l-160.32,177.708c-3.954,4.385-2.309,7.971,3.656,7.971h275.238
		c5.965,0,14.1-3.571,18.074-7.938c0,0,262.174-287.897,266.566-292.737c5.289-5.823,10.365-12.893,7.928-15.201
		c-2.639-2.501-8.614,2.777-15.629,8.752c-6.385,5.437-237.686,201.513-237.686,201.513c-4.84,3.426-13.68,6.226-19.645,6.226
		H421.904c-5.965,0-7.016-2.971-2.335-6.598l148.523-115.131c4.681-3.63,8.511-11.388,8.511-17.243V322.431
		c0-5.854,3.959-13.446,8.799-16.871l148.28-104.894c4.841-3.421,13.681-6.225,19.646-6.225h190.557
		c5.965,0,7.015,2.969,2.333,6.599c0,0-142.816,110.724-148.523,115.131c-5.707,4.407-8.659,11.953-8.659,22.821v172.807
		c0,5.893,3.339,7.177,7.42,2.856l80.659-85.421c4.082-4.322,7.421-12.681,7.421-18.574l-0.204-111.311
		c-0.005-5.855,3.226-14.232,7.179-18.616l160.32-177.706C1055.787,98.642,1054.141,95.057,1048.176,95.057"/>
	<path d="M2600.887,95.057h-334.533c-5.966,0-14.416,3.572-18.392,7.938l-266.568,292.735c-3.975,4.367-7.222,12.727-7.216,18.583
		v357.189c0.005,4.871-1.984,11.459-4.926,16.068c-0.284,0.445-0.575,0.867-0.876,1.272c-0.328,0.441-0.654,0.89-1,1.272
		l-160.32,177.709c-1.896,2.1-2.491,4.011-1.956,5.438c0.126,0.337,0.318,0.646,0.571,0.925c0.909,1.004,2.608,1.606,5.04,1.606
		h0.001h275.237h0.002c0.741,0,1.518-0.057,2.315-0.161v-0.001c2.101-0.277,4.343-0.926,6.517-1.799
		c0.011-0.004,0.02-0.008,0.029-0.012c0.639-0.258,1.264-0.533,1.883-0.83c0.18-0.085,0.354-0.173,0.531-0.262
		c0.497-0.25,0.983-0.505,1.459-0.777c0.3-0.171,0.585-0.351,0.875-0.529c0.367-0.228,0.733-0.453,1.081-0.693
		c0.388-0.267,0.745-0.546,1.104-0.825c0.235-0.185,0.484-0.361,0.707-0.551c0.57-0.484,1.103-0.982,1.57-1.496h0.001
		c0,0,262.174-287.899,266.566-292.737c5.288-5.825,10.364-12.895,7.927-15.203c-2.639-2.5-8.613,2.779-15.629,8.753
		c-6.385,5.436-237.686,201.513-237.686,201.513c-0.201,0.144-0.447,0.277-0.662,0.417c-1.163,0.76-2.487,1.482-3.947,2.145
		c-4.754,2.151-10.661,3.664-15.034,3.664h-190.557c-3.355,0-5.156-0.94-5.257-2.407c-0.077-1.142,0.873-2.603,2.922-4.19
		l148.523-115.131c1.103-0.854,2.15-1.953,3.119-3.186c0.059-0.076,0.126-0.14,0.186-0.217c0.063-0.084,0.119-0.181,0.183-0.267
		c2.95-3.963,5.024-9.276,5.024-13.574V322.431c0-5.854,3.957-13.446,8.798-16.871l148.28-104.894
		c4.84-3.422,13.681-6.224,19.646-6.224h153.302c5.966,0,11.685,4.975,3.101,14.989c0,0-304.322,345.733-310.642,352.947
		c-6.319,7.213,0.337,11.465,3.953,8.148c3.617-3.32,508.399-467.499,508.399-467.499
		C2608.498,98.645,2606.852,95.057,2600.887,95.057"/>
</g>
</svg>
